<svg xmlns="http://www.w3.org/2000/svg" viewBox="0 0 887.69 69.98"><defs><style>.cls-1{fill:none;stroke:#fff;stroke-miterlimit:10;stroke-width:2px;}</style></defs><title>Asset 2</title><g id="Layer_2" data-name="Layer 2"><g id="ARTISTS"><g id="IMAGE"><g id="Layer_11" data-name="Layer 11"><path class="cls-1" d="M1.5,1.8H25.44L43.2,49.28,60.1,1.8h26l17,47.66L120.75,1.8h22L116,67.83H89.34L72.23,21.59,55.12,67.83H29.23Z"/><path class="cls-1" d="M169.92,55.58l-6.5,12.25H141l35.75-66h29.89l37.36,66H220.07l-6.61-12.25ZM177.18,42H206L191.37,15.11Z"/><path class="cls-1" d="M344.08,53.18V60c0,5,.54,6.3,1.3,7.36v.45H322.31c-.33-.45-.76-1.69-.76-4.62V57.8c0-8.52-3.79-12.43-15.05-12.43h-29V67.83H255.16V1.8h54.26c30.65,0,34.12,10.47,34.12,17.66v.89c0,8.25-6.93,13.84-17,15.7C337.47,38.1,344.08,43.51,344.08,53.18Zm-35.53-22.8c9.1,0,11.59-3.2,11.59-7v-.17c0-3.82-2.49-6.84-11.59-6.84H277.47v14Z"/><path class="cls-1" d="M383.72,67.83H361.41V1.8H416c25.46,0,33.36,9.14,33.36,21.92v1c0,12.51-8.23,22-33.36,22H383.72ZM414.37,32c8.23,0,11.8-2.84,11.8-7.54v-.36c0-4.61-3.57-7.54-11.8-7.54H383.72V32Z"/><path class="cls-1" d="M461.16,47.06v-1h24.26c.32,2.93,1.84,9.5,18.95,9.5h.76c16.79,0,19-4.08,19-7.9,0-4-3.15-6.39-16.47-6.83l-10.72-.27C470.47,39.87,462,31.26,462,21.32v-.8C462,10.23,468.74,1,502.1,1h3.68c35.63,0,40.51,10.65,40.51,19.35v1H522.35c-.54-2.93-2.49-7.27-18.09-7.27h-1.08c-14.3,0-17.65,2.21-17.65,5.85,0,3.38,2.92,5.86,15.59,6.3l11.16.36c28.7,1,35.63,8.61,35.63,19.35V47c0,9.67-5.41,22-41.48,22h-3.14C465.49,69,461.16,55,461.16,47.06Z"/><path class="cls-1" d="M586.9,1.8V26.29h45V1.8h22.31v66H631.85V41.29h-45V67.83H564.59V1.8Z"/><path class="cls-1" d="M674.09,67.83V1.8H696.4v66Z"/><path class="cls-1" d="M789.76,16.44H738.53V28.25h49.71V43.33H738.53v24.5h-22.2V1.8h73.43Z"/><path class="cls-1" d="M802.11,16.89V1.8h84.58V16.89H855.5V67.83H833.3V16.89Z"/></g></g></g></g></svg>