<svg id="Layer_2" data-name="Layer 2" xmlns="http://www.w3.org/2000/svg" viewBox="0 0 1500 1500"><defs><style>.cls-1{fill:none;stroke:#fff;stroke-width:6px;}.cls-2{fill:#fff;}</style></defs><path class="cls-1" d="M916.38,864h51.43A77.17,77.17,0,0,0,1045,786.82a45,45,0,0,0-8.72-26.64l-233.11-318a65.9,65.9,0,0,0-106.3,0l-233.11,318A45,45,0,0,0,455,786.82,77.17,77.17,0,0,0,532.19,864h51.43l-109.2,109.2a61.42,61.42,0,0,0,0,86.85l6.16,6.16a63.46,63.46,0,0,0,89.73,0L731.38,905.12v-42h37.24v42L929.69,1066.2a63.46,63.46,0,0,0,89.73,0l6.16-6.16a61.42,61.42,0,0,0,0-86.85Z"/><path class="cls-2" d="M750,590.16c-48.61,0-88,40.63-88,90.75s39.41,90.75,88,90.75,88-40.63,88-90.75S798.61,590.16,750,590.16Zm0,114.4c-12.67,0-22.94-10.59-22.94-23.65s10.27-23.66,22.94-23.66,22.94,10.59,22.94,23.66S762.67,704.56,750,704.56Z"/></svg>