<svg id="Layer_1" data-name="Layer 1" xmlns="http://www.w3.org/2000/svg" viewBox="0 0 887.69 69.98"><defs><style>.cls-1{fill:none;stroke:#000;stroke-miterlimit:10;stroke-width:2px;}</style></defs><path class="cls-1" d="M193.55,31.07h22.71v26.4h-6.57L208,52.64c-1.9,2.22-7.28,6.26-18.22,6.26-18.45,0-26.55-8.6-26.55-24.7,0-13.75,8.22-24.7,26.49-24.7,11.59,0,24.84,3.33,26.56,16.75H200.35c-.95-3.58-3.43-6.71-10.06-6.71-8.69,0-12.54,6.51-12.54,14.73s3.85,14.59,12.54,14.59c6.92,0,10.53-2.86,11.89-8.14h-8.63Z"/><path class="cls-1" d="M237,10.94h17.21l18.16,46.53H257.24l-2.55-7.56H236.24l-2.54,7.56H218.62Zm8.58,11.73h-.12l-5.86,17.59h11.83Z"/><path class="cls-1" d="M274.91,10.94h30.52c13.19,0,20.11,7.62,20.11,23.26,0,18.25-9.82,23.27-21.94,23.27H274.91ZM289,47h11.77c8,0,10.23-6.45,10.23-12.9,0-8.67-3.78-12.78-11.35-12.78H289Z"/><path class="cls-1" d="M344.28,10.94h17.21l18.16,46.53H364.57L362,49.91H343.57L341,57.47H326Zm8.58,11.73h-.12l-5.86,17.59h11.83Z"/><path class="cls-1" d="M411.46,24.56c-.47-3.2-2.66-5.41-9.17-5.41-4.73,0-7.33,1.5-7.33,4.56,0,1.5,1.07,2.48,3.14,2.87,3.48.71,14.37,2.47,18.51,3.19,7.86,1.5,12.59,5.08,12.59,13.23,0,15.77-18.57,15.9-24.36,15.9-14.31,0-24.72-2.8-25.49-15.77H396c.29,3.52,2.18,5.73,9.46,5.73,3.55,0,7.39-.91,7.39-4.88,0-2.41-1.77-3.33-6.68-4.17l-14.08-2.35c-8.69-1.37-12.06-6.19-12.06-13.17,0-6.06,3.43-14.79,21.94-14.79,15.38,0,24.48,4.11,25.43,15.06Z"/><path class="cls-1" d="M431.62,48.54l26.62-27.18H433.46V10.94H477.1v9.12L450.67,47h26V57.47H431.62Z"/><path class="cls-1" d="M483,10.94h42.29V21H497v8.41h26.44V39H497v8.41h28.21v10H483Z"/><path class="cls-1" d="M526.89,10.94h13.6l6.63,31.41h.12l7.63-31.41h11.94l7.63,31.41h.12l6.62-31.41h13.61L582.13,57.47h-13.9L560.9,27.16h-.12l-7.33,30.31h-13.9Z"/><path class="cls-1" d="M628.25,24.56c-.47-3.2-2.66-5.41-9.16-5.41-4.73,0-7.34,1.5-7.34,4.56,0,1.5,1.07,2.48,3.14,2.87,3.49.71,14.37,2.47,18.51,3.19C641.27,31.27,646,34.85,646,43c0,15.77-18.57,15.9-24.37,15.9-14.31,0-24.72-2.8-25.49-15.77h16.68c.29,3.52,2.19,5.73,9.46,5.73,3.55,0,7.39-.91,7.39-4.88,0-2.41-1.77-3.33-6.68-4.17l-14.08-2.35c-8.69-1.37-12.06-6.19-12.06-13.17,0-6.06,3.43-14.79,21.94-14.79,15.38,0,24.49,4.11,25.43,15.06Z"/><path class="cls-1" d="M651.61,10.94h14.07V29.18l17.63-18.24h18.75L683,29.25l20.58,28.22H684.73L671.66,38.89l-6,5.48v13.1H651.61Z"/><path class="cls-1" d="M706.55,10.94h14.07V57.47H706.55Z"/></svg>