<svg id="Layer_3" data-name="Layer 3" xmlns="http://www.w3.org/2000/svg" viewBox="0 0 80 50"><defs><style>.cls-1{fill:#e6fcff;}</style></defs><g id="g10"><g id="g12"><path id="path14" class="cls-1" d="M52.47,21.73c-3.34,0-5,2.62-5,6.58,0,3.74,1.84,6.55,5,6.55,3.62,0,5-3.31,5-6.55s-1.71-6.58-5-6.58M43.6,11.9h4v9.5h.07A6.48,6.48,0,0,1,53,18.49c5.67,0,8.42,4.46,8.42,9.89,0,5-2.43,9.72-7.76,9.72-2.43,0-5-.61-6.22-3.06h-.07V37.6H43.6V11.9h0"/><path id="path16" class="cls-1" d="M76,25.22a3.85,3.85,0,0,0-4.11-3.49c-2.05,0-4.94,1.11-4.94,6.76,0,3.1,1.32,6.37,4.77,6.37,2.29,0,3.89-1.58,4.28-4.25h4c-.73,4.82-3.62,7.49-8.24,7.49C66.12,38.1,63,34,63,28.49s3-10,8.87-10c4.17,0,7.72,2.16,8.1,6.73H76"/><path id="path18" class="cls-1" d="M29.74,37.54H0L13.89,11.9H43.63L29.74,37.54"/></g></g></svg>