<svg id="Layer_2" data-name="Layer 2" xmlns="http://www.w3.org/2000/svg" viewBox="0 0 1500 286"><path d="M1383.53,47.07h-2.4L1269,220.72l-108-173.65h-79.4l0,.08h-1.4l-92,71.71-92-72.33H775.88l.1.08-186,.46c-1.22,0-2.42,0-3.61.13V47l-219.8.55c-2.45,0-4.84.09-7.18.31l-46.21.3-92.32,147L129.11,47.07H48.33V239.4H68.66V74.28L171.15,239.4h44q25.27-42,51.1-82.7t51.66-82.42V239.4H586.39v-.12c1.19.07,2.39.12,3.61.12H776l-.09.07h33.24l.1-.07h.58V239l103.46-80.8,104.13,81.32H1138L1004.47,133.7l87.82-69.51L1201.17,239.4h73.35L1383.53,71V239.4h68.14V47.07h-68.14Zm-973.8,175a35.26,35.26,0,0,1-11.13-6.18,36.18,36.18,0,0,1-8-9.2,26.19,26.19,0,0,1-3.71-11.27V90.49a26.19,26.19,0,0,1,3.71-11.27,36.18,36.18,0,0,1,8-9.2,35.48,35.48,0,0,1,11.13-6.19,40.81,40.81,0,0,1,13.46-2.19H553.7a40.16,40.16,0,0,0-7.8,11,36.9,36.9,0,0,0-3.71,16.21v108.8A36.65,36.65,0,0,0,545.9,214a40.28,40.28,0,0,0,7.24,10.3H423.19A40.55,40.55,0,0,1,409.73,222.09Zm385.38,2.2H646.59a40.55,40.55,0,0,1-13.46-2.2A35.48,35.48,0,0,1,622,215.91a36.14,36.14,0,0,1-8-9.2,25.93,25.93,0,0,1-3.71-11.27V90.49A25.93,25.93,0,0,1,614,79.22a36.14,36.14,0,0,1,8-9.2,35.7,35.7,0,0,1,11.13-6.19,40.81,40.81,0,0,1,13.46-2.19h148.2l102.53,82Z"/></svg>