<svg id="Layer_1" data-name="Layer 1" xmlns="http://www.w3.org/2000/svg" viewBox="0 0 327.21 385.09"><g id="Layer_2" data-name="Layer 2"><g id="Layer_1-2" data-name="Layer 1-2"><path d="M47.33,0H121.5V192.3H91.29V29.67Z"/><path d="M150.35,111.26c0-12.09,2.47-21.15,7.14-28.29,7.14-12.37,19.78-16,31-16H216c26.92,16.48,44.5,27.2,68.4,41.76l5.77,3.57a17.72,17.72,0,0,0,9.62,2.75c4.94,0,9.61-1.93,12.36-6.32,3.57-7.42-.28-15.93-7.42-20.33L159.69,0h55.49l84.07,51.1c22.25,13.46,28,36.81,15.11,58.51-7.15,12.37-19.78,15.94-31.05,15.94H255.84c-26.92-16.49-44.5-27.2-68.4-41.76l-5.77-3.57a17.62,17.62,0,0,0-9.62-2.75c-5.22,0-9.89,2.2-12.64,6.87-4.12,7.42-.27,16.21,7.15,20.6L309.69,192.3h-55.5L150.35,129.39Z"/><path d="M47.33,192H121.5V384.3H91.29V221.67Z"/><path d="M179.57,192.51v67.86h55.5l70.32,42.86c22.53,13.46,28,37.63,14.56,59.34-8.51,14.56-21.42,22.52-35.71,22.52-8,0-16.21-2.47-24.18-7.41L170.78,323a46.56,46.56,0,0,1-21.43-38.46v-92Zm0,87.37c0,8.79,5.22,17.58,12.64,22.25l103.57,63.18a17.58,17.58,0,0,0,9.61,2.75c5.22,0,9.89-2.2,12.64-6.87,4.12-7.41.27-16.21-7.14-20.6L179.57,260.37Zm55.77-87.37L326.27,248v34.06L179.85,192.51Z"/><rect y="35.41" width="2.9" height="2.9"/><rect x="11.8" y="23.61" width="2.9" height="2.9"/><rect y="23.61" width="2.9" height="2.9"/><rect x="23.61" y="11.8" width="2.9" height="2.9"/><rect x="11.8" y="11.8" width="2.9" height="2.9"/><rect y="11.8" width="2.9" height="2.9"/><rect x="35.41" width="2.9" height="2.9"/><rect x="23.61" width="2.9" height="2.9"/><rect x="11.8" width="2.9" height="2.9"/><rect width="2.9" height="2.9"/></g></g></svg>