<svg id="Layer_2" data-name="Layer 2" xmlns="http://www.w3.org/2000/svg" viewBox="0 0 1500 286"><defs><style>.cls-1{fill:#e8ffff;}</style></defs><path class="cls-1" d="M1242.32,59.66h-2.09l-97.39,150.86L1049,59.66H980v.07h-1.21l-80,62.3L819,59.19H714.41l.09.07-161.58.4c-1.06,0-2.1.05-3.13.11v-.18l-191,.48c-2.13,0-4.21.08-6.24.27l-40.15.26L232.2,188.32,152.51,59.66H82.33V226.75H100V83.29l89,143.46h38.19q22-36.52,44.4-71.85T316.5,83.29V226.75H549.79v-.11c1,.07,2.07.11,3.13.11H714.49l-.08.06h28.88l.08-.06h.5v-.39l89.89-70.2,90.46,70.65H1029L913,134.92l76.3-60.39,94.59,152.22h63.73l94.7-146.33V226.75h59.19V59.66Zm-846,152.05a30.67,30.67,0,0,1-9.66-5.37,31,31,0,0,1-6.92-8,22.57,22.57,0,0,1-3.23-9.79V97.38a22.57,22.57,0,0,1,3.23-9.79A31,31,0,0,1,396.3,74.22,35.56,35.56,0,0,1,408,72.31H521.38a35.27,35.27,0,0,0-6.77,9.55A32,32,0,0,0,511.38,96v94.52a31.76,31.76,0,0,0,3.23,14.2,35.17,35.17,0,0,0,6.28,9H408a35.06,35.06,0,0,1-11.7-2Zm334.81,1.91h-129a35.26,35.26,0,0,1-11.7-1.91,30.72,30.72,0,0,1-9.67-5.37,31.54,31.54,0,0,1-6.92-8,22.69,22.69,0,0,1-3.22-9.79V97.38a22.69,22.69,0,0,1,3.22-9.79,31.71,31.71,0,0,1,6.92-8,31.23,31.23,0,0,1,9.67-5.37,35.56,35.56,0,0,1,11.7-1.91h128.7l89.08,71.2Z"/><path class="cls-1" d="M1346.49,70.42a7,7,0,0,0-2.63,5.46v20a7,7,0,0,0,2.63,5.46,9.17,9.17,0,0,0,6.22,2.28h40.49v-2.77h-30v-.27a6.9,6.9,0,0,1-4.49-1.52,5.7,5.7,0,0,1-2.14-3.87V76.29a5.7,5.7,0,0,1,2.14-3.87,6.9,6.9,0,0,1,4.49-1.52h30V68.14h-40.49A9.17,9.17,0,0,0,1346.49,70.42Z"/><path class="cls-1" d="M1415,61.71a9.17,9.17,0,0,0-6.22-2.28H1331.7a9.17,9.17,0,0,0-6.22,2.28,7,7,0,0,0-2.62,5.46v37.59a7,7,0,0,0,2.62,5.46,9.17,9.17,0,0,0,6.22,2.28h77.12a9.19,9.19,0,0,0,6.22-2.28,7,7,0,0,0,2.63-5.46V67.17A7,7,0,0,0,1415,61.71Zm-10,6.15v36.21a5.66,5.66,0,0,1-2.14,3.87,6.85,6.85,0,0,1-4.49,1.52h-56.25a6.87,6.87,0,0,1-4.5-1.52,5.66,5.66,0,0,1-2.14-3.87V67.45a5.66,5.66,0,0,1,2.14-3.87,6.87,6.87,0,0,1,4.5-1.52h56.25a6.85,6.85,0,0,1,4.49,1.52,5.66,5.66,0,0,1,2.14,3.87Z"/></svg>