<svg id="Layer_2" data-name="Layer 2" xmlns="http://www.w3.org/2000/svg" viewBox="0 0 80 50"><defs><style>.cls-1{fill:#e6fcff;}</style></defs><path class="cls-1" d="M.91,28.41a.33.33,0,0,0-.32.31L0,33.16l.59,4.37a.32.32,0,0,0,.32.31.33.33,0,0,0,.32-.31h0l.69-4.37-.69-4.44a.34.34,0,0,0-.32-.31ZM4.2,26a.35.35,0,0,0-.34-.32.34.34,0,0,0-.33.32l-.79,7.18.79,7a.34.34,0,0,0,.33.32.35.35,0,0,0,.34-.32l.89-7L4.2,26Zm12.39-6.63A.63.63,0,0,0,16,20l-.62,13.22L16,41.71a.62.62,0,0,0,.61.6.61.61,0,0,0,.6-.6h0l.71-8.54L17.19,20A.62.62,0,0,0,16.59,19.35ZM10.17,24a.48.48,0,0,0-.47.46L9,33.17l.7,8.47a.49.49,0,0,0,.47.46.48.48,0,0,0,.47-.46l.81-8.47-.81-8.76A.47.47,0,0,0,10.17,24ZM23.11,42.31a.75.75,0,0,0,.74-.74l.61-8.4-.61-17.59a.75.75,0,0,0-1.49,0l-.54,17.59.54,8.41A.75.75,0,0,0,23.11,42.31Zm13.34,0a1,1,0,0,0,1-1h0l.42-8.16-.42-20.33a1,1,0,0,0-1-1,1,1,0,0,0-1,1l-.39,20.31s.39,8.17.39,8.17A1,1,0,0,0,36.45,42.35Zm-6.72,0a.89.89,0,0,0,.88-.88h0l.52-8.27-.52-17.73a.89.89,0,0,0-.88-.87.87.87,0,0,0-.88.87l-.47,17.73.47,8.27a.89.89,0,0,0,.88.87Zm-16.36-.08a.56.56,0,0,0,.54-.53l.75-8.54L13.91,25a.56.56,0,0,0-.54-.53.55.55,0,0,0-.54.53l-.66,8.13.66,8.54A.55.55,0,0,0,13.37,42.24ZM7,41.77a.42.42,0,0,0,.4-.39l.85-8.21-.85-8.53a.41.41,0,0,0-.81,0l-.74,8.53.74,8.21a.41.41,0,0,0,.41.39ZM33.08,15.16a1,1,0,0,0-.95.94L31.7,33.18l.43,8.22a.95.95,0,0,0,1.89,0h0l.48-8.22L34,16.1a.94.94,0,0,0-.94-.94ZM19.84,42.33a.69.69,0,0,0,.67-.67l.66-8.49-.66-16.24a.68.68,0,0,0-1.35,0l-.58,16.24.58,8.49A.69.69,0,0,0,19.84,42.33Zm7.37-.8h0l.57-8.34L27.21,15a.81.81,0,0,0-1.62,0l-.5,18.19.5,8.35a.81.81,0,1,0,1.62,0ZM70.16,22.69a9.89,9.89,0,0,0-3.81.76A17.36,17.36,0,0,0,49.06,7.63,17.76,17.76,0,0,0,42.77,8.8c-.74.29-.94.59-1,1.16V41.19a1.21,1.21,0,0,0,1.06,1.17H70.16a9.84,9.84,0,1,0,0-19.68ZM39.81,9.93A1.09,1.09,0,0,0,38.73,11l-.45,22.16.45,8a1.08,1.08,0,0,0,2.16,0h0l.49-8L40.89,11a1.1,1.1,0,0,0-1.08-1.08Z"/></svg>